<?xml version="1.0" standalone="no"?>
<!DOCTYPE svg PUBLIC "-//W3C//DTD SVG 20010904//EN"
 "http://www.w3.org/TR/2001/REC-SVG-20010904/DTD/svg10.dtd">
<svg version="1.0" xmlns="http://www.w3.org/2000/svg"
 width="16.000000pt" height="16.000000pt" viewBox="0 0 16.000000 16.000000"
 preserveAspectRatio="xMidYMid meet">
<metadata>
Created by potrace 1.11, written by Peter Selinger 2001-2013
</metadata>
<g transform="translate(0.000000,16.000000) scale(0.002516,-0.002516)"
fill="#000000" stroke="none">
<path d="M3067 6344 c-1 -1 -49 -5 -107 -9 -643 -40 -1268 -287 -1780 -703
-125 -102 -352 -327 -435 -432 -33 -41 -66 -81 -73 -89 -7 -7 -31 -41 -54 -75
-23 -33 -44 -63 -48 -66 -14 -11 -141 -221 -193 -320 -104 -197 -234 -535
-262 -679 -2 -9 -8 -34 -14 -56 -5 -22 -13 -56 -16 -75 -3 -19 -8 -42 -11 -51
-2 -9 -7 -34 -10 -55 -2 -22 -6 -46 -9 -54 -2 -8 -7 -39 -10 -69 -4 -30 -8
-62 -10 -71 -23 -118 -23 -541 0 -710 2 -14 6 -50 10 -80 33 -289 146 -659
290 -955 164 -335 346 -588 614 -855 212 -210 374 -337 626 -487 147 -87 451
-231 525 -248 8 -2 40 -12 70 -24 102 -38 284 -85 450 -116 14 -3 36 -7 50 -9
14 -3 49 -8 79 -11 30 -4 62 -8 71 -10 42 -8 257 -19 370 -18 186 1 400 20
545 48 200 38 337 74 480 125 466 165 847 403 1191 745 111 110 166 172 302
340 29 36 164 240 205 310 88 150 172 327 229 480 69 185 146 479 164 619 2
23 9 68 14 101 12 80 23 276 23 405 0 111 -11 329 -17 339 -2 3 -7 38 -11 76
-5 54 -52 300 -69 360 -1 6 -8 30 -15 55 -91 333 -249 671 -449 960 -301 437
-745 818 -1212 1043 -314 151 -665 257 -970 292 -30 4 -57 8 -60 10 -14 8
-465 26 -473 19z"/>
</g>
</svg>
